<svg width="326" height="326" viewBox="0 0 326 326" fill="none" xmlns="http://www.w3.org/2000/svg">
<rect width="326" height="326" rx="163" fill="black"/>
<path d="M70 71V84.6422C74.8332 79.8266 79.8457 75.3289 84.9344 71H70ZM95.9543 71C86.8977 78.4621 78.0754 86.1234 70 94.8539V131.418C83.7648 107.06 103.573 83.8133 136.034 71.1703L135.902 71H95.9543ZM133.482 79.7609C101.033 94.1523 82.825 120.086 70 146.343V171.678C74.357 172.029 78.491 172.731 82.4398 173.809C80.557 170.965 78.9531 168.014 78.0437 165.114C76.7719 161.059 77.0203 156.248 77.3484 152.114C77.6773 147.98 78.2535 144.625 78.2535 144.625L85.1832 145.813C85.1832 145.813 84.659 148.883 84.3574 152.671C84.0559 156.461 84.1445 161.071 84.7527 163.01C85.8762 166.592 89.9488 172.523 93.743 177.146C94.2599 177.774 94.7829 178.398 95.3117 179.017C98.2312 180.628 101.055 182.509 103.806 184.673C117.071 195.114 128.691 211.73 142.621 235.807C149.125 238.348 158.627 239.654 167.783 239.871C167.404 239.312 167.066 238.726 166.77 238.119C164.984 234.424 165.096 229.498 168.217 225.856C171.171 222.409 175.234 218.577 180.174 216.341C182.335 215.364 184.772 214.757 187.265 214.732C187.295 214.731 187.324 214.734 187.354 214.734L180.229 190.279C178.669 186.755 178.581 183.082 179.321 179.775C180.083 176.375 181.61 173.272 183.241 170.286C186.499 164.321 190.086 158.718 190.639 153.708C191.636 143.31 185.647 135.143 181.179 124.797L180.757 123.82L180.948 122.772C183.856 106.837 194.008 93.5398 204.532 80.1316C185.181 78.198 161.125 86.1289 142.79 91.6605L139.818 92.5578L138.561 89.718C136.965 86.1164 135.271 82.8031 133.482 79.7609ZM180.229 190.279C180.273 190.377 180.313 190.475 180.359 190.573L180.168 190.068L180.229 190.279ZM211.345 89.2984C209.621 89.2951 207.898 89.3616 206.18 89.4977C197.684 100.667 190.53 111.423 188.122 123.016C188.432 123.702 188.761 124.391 189.096 125.084C198.809 112.046 210.042 99.3055 226.755 90.8547C221.115 89.7914 216.001 89.3078 211.345 89.2984ZM150.395 140.38L157.162 142.289C156.311 145.307 157.412 150.331 160.466 154.83C163.519 159.33 168.292 163.178 173.586 164.543L171.83 171.35C164.504 169.461 158.54 164.515 154.647 158.778C150.754 153.041 148.702 146.386 150.395 140.38ZM201.189 179.465L199.316 212.618L207.838 188.273L201.189 179.464V179.465ZM229.468 190.82L209.479 216.66C209.479 216.66 240.083 206.453 241.582 206.052C243.082 205.65 229.468 190.82 229.468 190.82ZM244.575 220.928L215.575 226.652L245.334 229.283L244.575 220.927V220.928ZM188.457 221.14C190.877 235.51 183.306 236.343 175.265 237.629C178.751 238.58 189.984 240.053 193.113 234.913C195.633 230.773 190.896 224.244 188.457 221.14V221.14ZM209.705 237.826L225.145 247.914L242.383 241.793L209.705 237.826ZM70 247.953V254.984H255.938V247.953H70Z" fill="white"/>
</svg>
